<?xml version="1.0" encoding="utf-8"?>
<!-- Generator: Adobe Illustrator 24.0.0, SVG Export Plug-In . SVG Version: 6.00 Build 0)  -->
<svg version="1.1" id="Capa_1" xmlns="http://www.w3.org/2000/svg" xmlns:xlink="http://www.w3.org/1999/xlink" x="0px" y="0px"
	 viewBox="0 0 487.3 85.3" style="enable-background:new 0 0 487.3 85.3;" xml:space="preserve">
<style type="text/css">
	.st0{fill:#FFFFFF;}
	.st1{fill:#00BA95;}
</style>
<g>
	<path class="st0" d="M220.5,21.7c-5.4,0-10.3,1.6-14.3,5.2l-5.6-3.8h-0.3c-3.2,0-5.8,2.6-5.8,5.8v39.9h12.9V36.9
		c3-2.9,6.2-4.2,9.6-4.2c5.2,0,8.1,2.7,8.1,9v27H238v-28C238,28.3,232.5,21.7,220.5,21.7z"/>
	<path class="st0" d="M142.3,46.3c0-14.9,9.1-24.5,24-24.5c14.7,0,23.6,9,23.6,23.9c0,14.9-9.1,24.4-23.9,24.4
		C151.1,70.1,142.3,61,142.3,46.3z M176.9,45.9c0-8.5-4.1-13.2-10.8-13.2c-6.8,0-10.9,4.7-10.9,13.2c0,8.5,4.1,13.2,10.9,13.2
		C172.8,59.1,176.9,54.4,176.9,45.9z"/>
	<path class="st1" d="M335.2,46.4c0-14.8,8.9-24.3,23.3-24.3c14.3,0,23.1,9.2,23.1,23.8c0,14.8-9,24.3-23.4,24.3
		C343.9,70.2,335.2,61.1,335.2,46.4z M370.8,46.2c0-9.5-4.8-14.9-12.4-14.9c-7.6,0-12.4,5.4-12.4,14.9c0,9.5,4.8,14.9,12.4,14.9
		C366.1,61,370.8,55.6,370.8,46.2z"/>
	<path class="st1" d="M385.7,8.1c0-4.3,2.9-6.8,7-6.8c4.1,0,7.1,2.5,7.1,6.8c0,4.3-2.9,6.7-7.1,6.7C388.6,14.9,385.7,12.5,385.7,8.1
		z M387.3,23.5H398v45.4h-10.7V23.5z"/>
	<path class="st1" d="M487.3,59v8.8c-4,1.5-7.7,2.1-12.7,2.1c-11.3,0-15.9-5.9-15.9-17.5V32.9h-6.9v-9.4h7.2l2.9-11.4h7.5v11.4h17.1
		v9.4h-17.1v18.3c0,6.9,2.3,9.6,8.7,9.6C480.9,60.8,484.3,60.2,487.3,59z"/>
	<g>
		<path class="st1" d="M251.3,68.3c0-7.5,5.1-11.6,12.3-11.6c7.2,0,12,4,12,11.6c0,7.4-4.8,11.4-12,11.4
			C256.3,79.7,251.3,75.6,251.3,68.3z"/>
	</g>
	<path class="st1" d="M313.5,22.1c-5.9,0-11,2-14.8,5.7l-4.1-4.3h-0.2c-3.1,0.1-5.7,2.6-5.7,5.8v56h10.7V69.2c3.2,0.7,6.5,1,9.4,1
		c15.8,0,23.2-10.3,23.2-24.8C332.1,30.9,325.2,22.1,313.5,22.1z M308.6,61c-2.8,0-6.1-0.3-9.2-1.3V36.7c2.4-2.9,6.4-5.4,11.2-5.4
		c6.9,0,10.7,5.1,10.7,14.5C321.4,54.9,317.4,61,308.6,61z"/>
	<path class="st1" d="M431,22.1c-5.6,0-10.6,1.8-14.7,5.6l-3.9-4.2h-0.2v0c-3.2,0-5.8,2.6-5.8,5.8l0,0v39.6h10.7V36.6
		c3.2-3.5,7.3-5.3,11.2-5.3c6,0,9.3,3.3,9.3,10.5v27h10.7V41C448.5,28.7,443,22.1,431,22.1z"/>
	<path class="st0" d="M20.5,21.7c-5.4,0-10.4,0.8-14.4,1.9l0,0c-1.2,0.3-2.2,1.5-2.2,2.8h0v8.8c3.8-1.6,8.5-2.6,14.1-2.6
		c7.4,0,10.3,2.3,10.3,7.9v2.6c-3.3-1-6.5-1.5-11-1.5C6.6,41.7,0,47.2,0,56.2c0,8.6,5.7,14,15.1,14c6.3,0,11-1.8,14.6-4.9l0.7,3.5
		h10.8V41.6C41.2,27.7,35.7,21.7,20.5,21.7z M28.3,57.1c-2.4,2.3-5.4,3.7-9.1,3.7c-3.7,0-6.4-1.5-6.4-5.2c0-3.7,2.8-5.5,7.6-5.5
		c2.6,0,5.4,0.4,8,1.2V57.1z"/>
	<path class="st0" d="M58.4,45.9c0-8.3,4.5-13.2,13-13.2c4.1,0,7.4,0.8,10,2v-8.9c0-1.3-0.9-2.4-2.1-2.8l0,0
		c-2.6-0.8-5.9-1.3-9.2-1.3c-15.6,0-24.7,10-24.7,24.4c0,14.6,8.2,23.9,23.7,23.9c5.2,0,9.3-1,12.6-2.3v-11
		c-3.2,1.6-6.8,2.4-10.9,2.4C62.7,59.1,58.4,54.2,58.4,45.9z"/>
	<path class="st0" d="M96.5,45.9c0-8.3,4.5-13.2,13-13.2c4.1,0,7.4,0.8,10,2v-8.9c0-1.3-0.9-2.4-2.1-2.8l0,0
		c-2.6-0.8-5.9-1.3-9.2-1.3c-15.6,0-24.7,10-24.7,24.4c0,14.6,8.2,23.9,23.7,23.9c5.2,0,9.3-1,12.6-2.3v-11
		c-3.2,1.6-6.8,2.4-10.9,2.4C100.8,59.1,96.5,54.2,96.5,45.9z"/>
	<path class="st0" d="M131.1,0c-4.8,0-8.2,2.7-8.2,7.7c0,5,3.4,7.6,8.2,7.6c4.8,0,8.3-2.6,8.3-7.6C139.4,2.7,135.9,0,131.1,0z
		 M124.7,68.8h12.9V23.1h-12.9V68.8z"/>
</g>
</svg>
