<svg id="Capa_1" data-name="Capa 1" xmlns="http://www.w3.org/2000/svg" viewBox="0 0 51.67 7.48"><defs><style>.cls-1{fill:#fff;}</style></defs><path class="cls-1" d="M6.47-22.1v1.78H8.85v1.48H6.47c0,.89-.17,2.14.77,2.51a6.7,6.7,0,0,0,1.62.09v1.51A3.4,3.4,0,0,1,5.45-16,3,3,0,0,1,5-17.32V-22.1Z" transform="translate(6.86 22.1)"/><path class="cls-1" d="M21.41-18.83c-1.44,0-1.44.93-1.44.93v3.15H18.46c0-1,0-1.82,0-2.87a2.54,2.54,0,0,1,1.19-2.29,3.19,3.19,0,0,1,1.76-.41Z" transform="translate(6.86 22.1)"/><path class="cls-1" d="M.5-20.32v2.85a1.32,1.32,0,0,0,.83,1.23,1.58,1.58,0,0,0,1.43-.26,1.41,1.41,0,0,0,.37-1v-2.85H4.61s0,1.48,0,2.85a2.74,2.74,0,0,1-1.1,2.28,3.13,3.13,0,0,1-3.33,0A2.77,2.77,0,0,1-1-17.47v-2.85Z" transform="translate(6.86 22.1)"/><path class="cls-1" d="M11.58-20.37a2.82,2.82,0,0,0-2.81,2.83,2.82,2.82,0,0,0,2.81,2.83,2.82,2.82,0,0,0,2.81-2.83,2.81,2.81,0,0,0-2.81-2.83m0,4.16a1.33,1.33,0,0,1-1.33-1.33,1.34,1.34,0,0,1,1.33-1.34,1.34,1.34,0,0,1,1.34,1.34,1.33,1.33,0,0,1-1.34,1.33" transform="translate(6.86 22.1)"/><polygon class="cls-1" points="32.88 1.42 29.56 1.41 29.49 0.99 32.56 0.54 32.88 1.42"/><rect class="cls-1" x="39.98" y="1.78" width="1.42" height="5.56"/><path class="cls-1" d="M25.57-17.15a1.23,1.23,0,0,1-.49.76,1.55,1.55,0,0,1-1.39.18,1.5,1.5,0,0,1-.46-.4c1.2-.62,2.42-1.2,3.62-1.76l-.23-.49A2.71,2.71,0,0,0,24-20.28a3,3,0,0,0-2.47,1.94,2.92,2.92,0,0,0,.7,2.9,2.92,2.92,0,0,0,3,.65,2.77,2.77,0,0,0,1.68-1.85Zm-2.43-1.08a1.38,1.38,0,0,1,1.8-.32l-.88.44L23-17.58a1.28,1.28,0,0,1,.19-.65" transform="translate(6.86 22.1)"/><path class="cls-1" d="M36.52-22.1v1.78H38.9v1.48H36.52c0,.89-.17,2.14.77,2.51a6.7,6.7,0,0,0,1.62.09v1.51A3.4,3.4,0,0,1,35.5-16a3.18,3.18,0,0,1-.45-1.36V-22.1Z" transform="translate(6.86 22.1)"/><path class="cls-1" d="M42-20.41a2.82,2.82,0,0,0-2.81,2.83A2.82,2.82,0,0,0,42-14.75a2.83,2.83,0,0,0,2.82-2.83A2.82,2.82,0,0,0,42-20.41m0,4.16a1.34,1.34,0,0,1-1.33-1.33A1.34,1.34,0,0,1,42-18.92a1.34,1.34,0,0,1,1.34,1.34A1.34,1.34,0,0,1,42-16.25" transform="translate(6.86 22.1)"/><path class="cls-1" d="M32.73-17.89V-22.1H31.3V-20a2.75,2.75,0,0,0-1.38-.36,2.82,2.82,0,0,0-2.81,2.83,2.82,2.82,0,0,0,2.81,2.83,2.83,2.83,0,0,0,2.82-2.83c0-.13,0-.24,0-.4m-2.82,1.76a1.33,1.33,0,0,1-1.33-1.34,1.33,1.33,0,0,1,1.33-1.33,1.33,1.33,0,0,1,1.33,1.33,1.33,1.33,0,0,1-1.33,1.34" transform="translate(6.86 22.1)"/><path class="cls-1" d="M33.83-22a.73.73,0,0,0-.74.73.74.74,0,0,0,.74.74.74.74,0,0,0,.73-.74.73.73,0,0,0-.73-.73" transform="translate(6.86 22.1)"/><path class="cls-1" d="M17.24-18.84h.93v-1.48h-.93a2.59,2.59,0,0,0-2.65,2.85,2.48,2.48,0,0,0,2.65,2.72h.93v-1.47h-.93a1.17,1.17,0,0,1-1.1-1.24,1.21,1.21,0,0,1,1.1-1.37" transform="translate(6.86 22.1)"/><path class="cls-1" d="M-3-16.89a1,1,0,0,1-1,.66,1.34,1.34,0,0,1-1.34-1.33A1.34,1.34,0,0,1-4-18.9a1.34,1.34,0,0,1,1.33,1.34v2.81h1.48v-2.81A2.82,2.82,0,0,0-4-20.39a2.82,2.82,0,0,0-2.82,2.83A2.82,2.82,0,0,0-4-14.74,2.14,2.14,0,0,0-3-15Z" transform="translate(6.86 22.1)"/></svg>