<?xml version="1.0" encoding="utf-8"?>
<!-- Generator: Adobe Illustrator 23.0.3, SVG Export Plug-In . SVG Version: 6.00 Build 0)  -->
<svg version="1.1" id="Capa_1" xmlns="http://www.w3.org/2000/svg" xmlns:xlink="http://www.w3.org/1999/xlink" x="0px" y="0px"
	 viewBox="0 0 300 50" style="enable-background:new 0 0 300 50;" xml:space="preserve">
<style type="text/css">
	.st0{fill:#FFFFFF;}
</style>
<g>
	<g>
		<path class="st0" d="M30,25.1c0-3.7,0-7.5,0-11.3c0-0.7,0.7-1.1,1.3-0.8c2.7,1.6,5.4,3.2,8.1,4.8c2.5,1.5,5,3,7.6,4.5
			c3.3,2,6.6,3.9,9.9,5.9c3.9,2.3,7.8,4.6,11.7,7c0.7,0.4,0.7,1.4,0,1.9c-6.2,3.6-12.4,7.4-18.5,11.1c-0.4,0.2-0.7,0.2-1.1,0
			c-6.1-3.7-12.3-7.4-18.5-11.1c-0.4-0.2-0.5-0.5-0.5-0.9C30,32.5,30,28.8,30,25.1z M32.2,16.1c0,1.5,0,3,0,4.5
			c0,0.2,0.2,0.3,0.3,0.4c4.7,2.7,9.5,5.5,14.2,8.2c3.6,2.1,7.2,4.2,10.8,6.3c0.3,0.1,0.4,0.2,0,0.5c-0.4,0.2-0.8,0.5-1.2,0.7
			c-0.3,0.2-0.5,0.2-0.9,0c-1.6-0.9-3.2-1.8-4.8-2.8c-5.2-3-10.3-6-15.5-9c-1-0.5-1.9-1.1-3-1.7c0,1.5,0,2.9,0,4.4
			c0,0.4,0.1,0.6,0.4,0.7c1.3,0.7,2.6,1.5,3.9,2.2c3.4,1.9,6.9,3.9,10.3,5.9c1.5,0.9,3.1,1.8,4.6,2.7c0.3,0.2,0.3,0.3,0,0.5
			c-0.4,0.2-0.8,0.5-1.3,0.8c-0.3,0.2-0.5,0.1-0.8,0c-5.4-3.1-10.8-6.2-16.2-9.3c-0.3-0.2-0.7-0.4-1.1-0.6c0,1.5,0,2.9,0,4.3
			c0,0.4,0.1,0.7,0.5,0.9c5.4,3.2,10.9,6.5,16.3,9.8c0.4,0.2,0.6,0.2,1,0c4.9-2.9,9.8-5.9,14.7-8.9c0.3-0.2,0.8-0.3,1.1-0.7
			C54.6,29.4,43.6,22.5,32.2,16.1z"/>
		<path class="st0" d="M38.8,15.8c0.9-0.5,1.8-1.1,2.7-1.6c2.5-1.5,5.1-3,7.6-4.5c0.4-0.2,0.6,0,0.9,0.2c2,1.1,3.9,2.3,5.9,3.5
			c3.4,2,6.8,4,10.2,6c0.6,0.3,0.6,0.3,0.6-0.3c0-1.3,0-2.6,0-3.9c0-0.3-0.1-0.5-0.4-0.7c-5-3-10-6.1-15-9.2c-0.5-0.3-1-0.6-1.4-0.9
			c-0.3-0.2-0.5-0.2-0.9,0c-2.1,1.3-4.3,2.6-6.5,4c-2.6,1.6-5.2,3.2-7.8,4.8c-0.2,0.1-0.3,0.1-0.5,0c-0.6-0.3-1.2-0.7-1.8-1.1
			c1.3-0.8,2.5-1.5,3.7-2.3c3.1-1.9,6.2-3.8,9.3-5.7c1.2-0.7,2.5-1.5,3.7-2.3c0.3-0.2,0.5-0.1,0.8,0c4.6,2.9,9.3,5.7,13.9,8.6
			c1.5,0.9,3.1,1.9,4.7,2.9c0.2,0.1,0.3,0.3,0.3,0.6c0,6.5,0,13,0,19.5c0,0.1,0,0.2,0,0.4c-0.7-0.4-1.3-0.8-1.9-1.1
			c-0.2-0.1-0.1-0.4-0.1-0.6c0-3.1,0-6.1,0-9.2c0-0.4-0.1-0.7-0.5-0.9c-5.4-3.2-10.8-6.4-16.1-9.6c-0.5-0.3-0.8-0.3-1.3,0
			c-2.5,1.5-5.1,3.1-7.6,4.6c-0.1,0.1-0.3,0.2-0.5,0.1C40.1,16.5,39.5,16.2,38.8,15.8z"/>
		<path class="st0" d="M57.8,24c-1.8-1.1-3.6-2.2-5.3-3.2c-0.8-0.5-1.7-1-2.6-1.6c-0.3-0.2-0.5-0.2-0.8,0c-0.6,0.4-1.2,0.7-1.8,1.1
			c-0.2,0.1-0.4,0.2-0.7,0c-0.5-0.3-1-0.6-1.6-1c1.5-0.9,3-1.8,4.4-2.7c0.2-0.1,0.3,0,0.4,0c2.1,1.3,4.2,2.5,6.3,3.8
			c0.4,0.3,0.9,0.6,1.4,0.8c0.2,0.1,0.3,0.3,0.3,0.6C57.8,22.6,57.8,23.3,57.8,24z"/>
	</g>
	<g>
		<g>
			<path class="st0" d="M89.2,13L79.1,37.1h7l1.7-4.3H97l1.7,4.3h7.1L95.7,13H89.2z M89.6,27.6l2.7-6.8l2.7,6.8H89.6z"/>
			<path class="st0" d="M117.3,13.1h-9.2V37h9.1c8.6,0,13.6-5.1,13.6-12v-0.1C130.7,18,125.8,13.1,117.3,13.1z M124,25.1
				c0,3.9-2.6,6.1-6.6,6.1h-2.8V19h2.7C121.4,19,124,21.2,124,25.1L124,25.1z"/>
			<polygon class="st0" points="140.7,27.6 152.2,27.6 152.2,22.4 140.7,22.4 140.7,18.8 153.4,18.8 153.4,13.1 134.2,13.1 
				134.2,37 153.6,37 153.6,31.4 140.7,31.4 			"/>
			<path class="st0" d="M182.6,13l-7.7,18.3h-11.3V13.1h-6.6V37h15.5h2.7h4.3l1.7-4.3h9.2l1.7,4.3h7.1l-10.1-24.1L182.6,13L182.6,13
				z M183,27.6l2.7-6.8l2.7,6.8H183z"/>
			<polygon class="st0" points="217.4,25.8 207.6,13.1 201.4,13.1 201.4,37 208,37 208,23.9 218.2,37 224,37 224,13.1 217.4,13.1 
							"/>
			<polygon class="st0" points="226.9,18.9 234,18.9 234,37 240.7,37 240.7,18.9 247.8,18.9 247.8,13.1 226.9,13.1 			"/>
			<polygon class="st0" points="257.3,31.4 257.3,27.6 268.7,27.6 268.7,22.4 257.3,22.4 257.3,18.8 269.9,18.8 269.9,13.1 
				250.7,13.1 250.7,37 270.1,37 270.1,31.4 			"/>
		</g>
	</g>
</g>
</svg>
