<?xml version="1.0" encoding="utf-8"?>
<!-- Generator: Adobe Illustrator 23.0.3, SVG Export Plug-In . SVG Version: 6.00 Build 0)  -->
<svg version="1.1" id="Capa_1" xmlns="http://www.w3.org/2000/svg" xmlns:xlink="http://www.w3.org/1999/xlink" x="0px" y="0px"
	 viewBox="0 0 210 50" style="enable-background:new 0 0 210 50;" xml:space="preserve">
<style type="text/css">
	.st0{fill:#FFFFFF;}
</style>
<g>
	<g>
		<path class="st0" d="M5.1,12.2h13c2.3,0,4.5,0.5,6.5,1.4s3.8,2.2,5.3,3.7c1.5,1.5,2.7,3.3,3.6,5.4c0.9,2,1.3,4.2,1.3,6.4
			c0,2.2-0.4,4.3-1.3,6.4c-0.8,2-2,3.8-3.5,5.4c-1.5,1.6-3.3,2.8-5.3,3.7c-2,0.9-4.2,1.4-6.5,1.4h-13V12.2z M13.9,38.5h2
			c1.5,0,2.9-0.2,4.1-0.7c1.2-0.5,2.2-1.1,3-2s1.4-1.8,1.9-3c0.4-1.1,0.6-2.4,0.6-3.8c0-1.3-0.2-2.6-0.7-3.8c-0.4-1.2-1.1-2.2-1.9-3
			c-0.8-0.8-1.8-1.5-3-2c-1.2-0.5-2.5-0.7-4-0.7h-2V38.5z"/>
		<path class="st0" d="M45.9,23v12.9c0,2.8,1.4,4.3,4.1,4.3c2.7,0,4.1-1.4,4.1-4.3V23h8.1v14.5c0,3.1-1,5.4-3.1,7
			c-2,1.6-5.1,2.3-9.1,2.3s-7.1-0.8-9.1-2.3c-2-1.6-3.1-3.9-3.1-7V23H45.9z"/>
		<path class="st0" d="M65.9,23H74v3.8c0.9-1.4,1.9-2.4,3.2-3.2c1.3-0.7,2.7-1.1,4.4-1.1c0.2,0,0.4,0,0.7,0s0.5,0,0.9,0.1v7.7
			c-1.1-0.5-2.2-0.8-3.5-0.8c-1.9,0-3.3,0.6-4.2,1.7c-0.9,1.1-1.4,2.8-1.4,4.9v9.8h-8.1V23z"/>
		<path class="st0" d="M102.9,23h8.1v23h-8.1v-2.6c-1.7,2.2-4.1,3.3-7,3.3c-1.7,0-3.2-0.3-4.6-0.9c-1.4-0.6-2.6-1.5-3.7-2.6
			c-1-1.1-1.9-2.4-2.4-3.9c-0.6-1.5-0.9-3.1-0.9-4.9c0-1.6,0.3-3.2,0.9-4.7c0.6-1.5,1.4-2.8,2.4-3.9c1-1.1,2.2-2,3.6-2.6
			c1.4-0.6,3-1,4.7-1c2.9,0,5.2,1,7.1,3L102.9,23L102.9,23z M92.7,34.4c0,0.7,0.1,1.4,0.4,2.1c0.3,0.6,0.6,1.2,1.1,1.7
			c0.5,0.5,1,0.8,1.7,1.1c0.6,0.3,1.3,0.4,2.1,0.4c0.7,0,1.4-0.1,2-0.4c0.6-0.3,1.2-0.6,1.7-1.1c0.5-0.5,0.8-1,1.1-1.7
			c0.3-0.6,0.4-1.3,0.4-2s-0.1-1.4-0.4-2c-0.3-0.6-0.7-1.2-1.1-1.7c-0.5-0.5-1-0.9-1.7-1.1c-0.6-0.3-1.3-0.4-2-0.4
			c-0.7,0-1.4,0.1-2.1,0.4c-0.6,0.3-1.2,0.6-1.7,1.1c-0.5,0.5-0.8,1-1.1,1.6S92.7,33.7,92.7,34.4z"/>
		<path class="st0" d="M132.1,30.4c-1.4-1-2.8-1.4-4.3-1.4c-0.8,0-1.5,0.1-2.2,0.4c-0.7,0.3-1.3,0.6-1.8,1.1
			c-0.5,0.5-0.9,1.1-1.2,1.7c-0.3,0.7-0.4,1.4-0.4,2.3c0,0.8,0.1,1.5,0.4,2.2s0.7,1.3,1.2,1.7c0.5,0.5,1.1,0.9,1.8,1.1
			c0.7,0.3,1.4,0.4,2.2,0.4c1.5,0,2.9-0.5,4.3-1.6v6.9c-2,0.9-3.9,1.3-5.7,1.3c-1.7,0-3.3-0.3-4.8-0.8c-1.5-0.6-2.8-1.4-4-2.4
			c-1.1-1.1-2.1-2.3-2.8-3.8c-0.7-1.5-1-3.1-1-4.9s0.3-3.5,1-5c0.7-1.5,1.6-2.8,2.7-3.9c1.1-1.1,2.5-1.9,4-2.6
			c1.6-0.6,3.2-0.9,5-0.9c2,0,3.8,0.4,5.5,1.3L132.1,30.4L132.1,30.4z"/>
		<path class="st0" d="M134.9,23h8.1v3.8c0.9-1.4,1.9-2.4,3.2-3.2c1.3-0.7,2.7-1.1,4.4-1.1c0.2,0,0.4,0,0.7,0s0.5,0,0.9,0.1v7.7
			c-1.1-0.5-2.2-0.8-3.5-0.8c-1.9,0-3.3,0.6-4.2,1.7c-0.9,1.1-1.4,2.8-1.4,4.9v9.8h-8.1V23z"/>
		<path class="st0" d="M153.5,14.1c0-0.6,0.1-1.2,0.4-1.8c0.2-0.6,0.6-1,1-1.5c0.4-0.4,0.9-0.7,1.5-1c0.6-0.2,1.1-0.4,1.8-0.4
			s1.2,0.1,1.8,0.4c0.6,0.2,1,0.6,1.5,1c0.4,0.4,0.7,0.9,1,1.5c0.2,0.6,0.4,1.1,0.4,1.8c0,0.6-0.1,1.2-0.4,1.8c-0.2,0.6-0.6,1-1,1.5
			c-0.4,0.4-0.9,0.7-1.5,1c-0.6,0.2-1.1,0.4-1.8,0.4c-0.6,0-1.2-0.1-1.8-0.4c-0.6-0.2-1-0.6-1.5-1c-0.4-0.4-0.7-0.9-1-1.5
			C153.6,15.4,153.5,14.8,153.5,14.1z M162.1,23v23H154V23H162.1z"/>
		<path class="st0" d="M174,8.8v37.1h-8.1V8.8H174z"/>
		<path class="st0" d="M183.6,41.6c0-0.7,0.1-1.4,0.4-2c0.3-0.6,0.6-1.2,1.1-1.7c0.5-0.5,1-0.8,1.7-1.1c0.6-0.3,1.3-0.4,2-0.4
			c0.7,0,1.4,0.1,2,0.4c0.6,0.3,1.2,0.6,1.7,1.1c0.5,0.5,0.8,1,1.1,1.7c0.3,0.6,0.4,1.3,0.4,2c0,0.7-0.1,1.4-0.4,2
			c-0.3,0.6-0.6,1.2-1.1,1.7c-0.5,0.5-1,0.9-1.7,1.1c-0.6,0.3-1.3,0.4-2,0.4c-0.7,0-1.4-0.1-2-0.4c-0.6-0.3-1.2-0.6-1.7-1.1
			c-0.5-0.5-0.9-1-1.1-1.7C183.7,43,183.6,42.3,183.6,41.6z"/>
	</g>
	<path class="st0" d="M189.2,11.5c-2.8,2-5.4,4.3-7.7,6.9l7.7,14.6l7.7-14.6C194.6,15.8,192,13.5,189.2,11.5z"/>
	<path class="st0" d="M189.7,10.4c4.7-3.3,9.7-5.7,15.2-7.3c-2.5,4.8-5,9.5-7.5,14.2C195,14.8,192.5,12.5,189.7,10.4z"/>
	<path class="st0" d="M173.6,3.2c5.5,1.6,10.5,4,15.1,7.3c-2.8,2-5.4,4.3-7.7,6.9C178.6,12.7,176.1,8,173.6,3.2z"/>
</g>
</svg>
